<svg width="389" height="60" viewBox="0 0 389 60" fill="none" xmlns="http://www.w3.org/2000/svg">
    <path d="M275.585 41.7503C271.728 41.7503 269.777 39.9355 269.777 36.2626V22.349H275.585V19.2811H269.777V10.6824H266.363V36.8244C266.363 41.9231 269.423 44.4725 275.585 44.4725V41.7503Z" fill="url(#paint0_linear_2656_981)"/>
    <path d="M317.456 19.3244H313.821L305.84 39.7194L300.076 22.3058H297.195L291.342 39.849L283.495 19.3244H279.903L289.48 43.954H293.337L298.525 27.6639L304.022 43.954H307.968L317.456 19.3244Z" fill="url(#paint1_linear_2656_981)"/>
    <path d="M347.741 31.6392C347.741 28.1824 346.499 25.2009 344.061 22.6947C341.622 20.1453 338.607 18.849 335.105 18.7194C331.469 18.5898 328.321 19.8429 325.706 22.4355C323.09 24.9849 321.76 28.096 321.76 31.6824C321.76 35.1392 322.957 38.1206 325.395 40.6268C327.834 43.133 330.849 44.4293 334.351 44.5157C337.987 44.6453 341.135 43.3923 343.75 40.8429C346.411 38.2503 347.741 35.1824 347.741 31.6392ZM327.789 38.2503C325.972 36.3058 325.129 34.0157 325.173 31.4231C325.218 28.7873 326.149 26.5836 328.055 24.7256C329.962 22.8676 332.223 21.9169 334.927 21.9602C337.499 21.9602 339.671 22.8676 341.489 24.7256C343.307 26.5836 344.282 28.7873 344.371 31.3799C344.415 34.1021 343.484 36.4355 341.489 38.4663C339.538 40.4972 337.189 41.4046 334.395 41.275C331.78 41.1886 329.607 40.1947 327.789 38.2503Z" fill="url(#paint2_linear_2656_981)"/>
    <path d="M355.769 29.2194C355.769 27.6207 356.035 26.3676 356.612 25.4169C356.966 24.8552 357.632 24.1639 358.607 23.3861C359.582 22.6083 360.868 22.1762 362.42 22.133V18.849C361.09 18.8058 359.804 19.1083 358.518 19.7565C357.144 20.491 356.08 21.4849 355.37 22.8244V19.3244H352.222V43.954H355.769V29.2194Z" fill="url(#paint3_linear_2656_981)"/>
    <path d="M376.173 31.7256L385.794 19.3244H381.582L369.877 34.1021V10.6392H366.375V43.954H370.01V39.2441L374.045 34.275L382.247 43.954H386.636L376.173 31.7256Z" fill="url(#paint4_linear_2656_981)"/>
    <path fill-rule="evenodd" clip-rule="evenodd" d="M207.537 44.9935V29.9108C207.537 26.4568 208.698 23.551 211.035 21.2259C213.37 18.9027 216.301 17.7231 219.801 17.7231C223.258 17.7231 226.189 18.9042 228.523 21.2259C230.86 23.551 232.021 26.4568 232.021 29.9108V44.9935H226.513V29.5651C226.513 27.7934 225.845 26.2827 224.476 24.9489C223.112 23.619 221.599 22.9997 219.801 22.9997C217.991 22.9997 216.392 23.6281 215.037 24.9489C213.68 26.2715 213.045 27.7781 213.045 29.5651V44.9935H207.537ZM257.141 34.8342H262.866L262.377 36.2178C261.376 39.052 259.647 41.3514 257.197 43.0368C254.762 44.7118 252.077 45.5519 249.124 45.5984L249.121 45.5984C245.377 45.6452 242.058 44.3235 239.209 41.6402L239.206 41.6371L239.203 41.634C236.36 38.9099 234.854 35.6721 234.804 31.874C234.71 27.9062 236.161 24.4327 239.114 21.6013C242.105 18.7328 245.622 17.3614 249.7 17.5952L249.707 17.5956C253.342 17.8287 256.508 19.2838 259.165 21.9658L259.168 21.9693L259.172 21.9728C261.731 24.6052 263.057 27.6217 263.057 30.991V33.8022H240.547C240.95 35.5023 241.834 36.9403 243.222 38.1043C244.94 39.545 246.912 40.2744 249.223 40.2356L249.229 40.2354C251.063 40.2156 252.571 39.791 253.804 39.0104C255.037 38.2295 256.06 37.0509 256.855 35.4205L257.141 34.8342ZM276.633 40.7107V45.5121H275.585C272.385 45.5121 269.793 44.8539 267.992 43.3579C266.154 41.8319 265.316 39.5866 265.316 36.8244V9.64282H270.824V18.2416H276.633V23.3886H270.824V36.2626C270.824 37.9243 271.263 38.9777 271.955 39.6293C272.658 40.2908 273.805 40.7107 275.585 40.7107H276.633ZM318.978 18.2848L308.689 44.9935H303.269L298.554 31.0217L294.104 44.9935H288.762L278.377 18.2848H284.217L291.275 36.744L296.438 21.2663H300.834L305.922 36.6382L313.104 18.2848H318.978ZM334.319 45.5548C338.249 45.6935 341.671 44.3258 344.484 41.5847C347.335 38.8064 348.788 35.475 348.788 31.6392C348.788 27.9072 347.437 24.6698 344.817 21.9755C342.184 19.2241 338.908 17.8199 335.144 17.6806L335.142 17.6805C331.21 17.5403 327.784 18.9081 324.969 21.6968C322.158 24.4373 320.712 27.8131 320.712 31.6824C320.712 35.4063 322.013 38.6474 324.642 41.3491C327.273 44.0528 330.548 45.4604 334.319 45.5548ZM326.22 31.4408C326.181 33.7732 326.929 35.8013 328.557 37.5431C330.189 39.2889 332.1 40.159 334.43 40.236L334.437 40.2362L334.444 40.2365C336.94 40.3524 338.994 39.5576 340.732 37.7489L340.736 37.7447L340.74 37.7405C342.542 35.9063 343.362 33.8416 343.324 31.4061C343.243 29.084 342.378 27.1265 340.738 25.4499C339.117 23.7927 337.215 22.9997 334.927 22.9997H334.919L334.911 22.9996C332.5 22.9611 330.505 23.7948 328.789 25.4674C327.083 27.1305 326.26 29.0726 326.22 31.4408ZM356.417 19.9127C356.905 19.5068 357.441 19.1513 358.022 18.8411L358.033 18.8352L358.044 18.8295C359.471 18.1102 360.931 17.7605 362.454 17.81L363.467 17.8429V23.1438L362.449 23.1722C361.078 23.2103 360.026 23.5879 359.263 24.1966C358.33 24.9399 357.77 25.5431 357.504 25.9613C357.067 26.6871 356.816 27.7256 356.816 29.2194V44.9935H351.175V18.2848H356.417V19.9127ZM370.924 31.0983L381.073 18.2848H387.922L377.52 31.6936L388.9 44.9935H381.76L374.062 35.9101L371.057 39.6109V44.9935H365.328V9.59961H370.924V31.0983ZM240.677 28.6984H257.308C256.777 27.2021 255.904 25.9648 254.69 24.9635C253.16 23.7017 251.311 23.0389 249.089 22.9996C246.892 22.9606 245 23.6161 243.372 24.8931C242.097 25.8934 241.21 27.1576 240.677 28.6984Z" fill="url(#paint5_linear_2656_981)"/>
    <path fill-rule="evenodd" clip-rule="evenodd" d="M129.807 23.8546C128.861 24.2505 127.983 24.8492 127.172 25.6604C126.361 26.4715 125.763 27.3503 125.367 28.3062C124.962 29.2719 124.759 30.3244 124.74 31.4736C124.72 32.6227 124.894 33.6945 125.261 34.6891C125.628 35.6644 126.188 36.5721 126.95 37.4123C127.713 38.2524 128.553 38.88 129.47 39.3146C130.406 39.7588 131.42 40.0002 132.51 40.0581C133.688 40.1161 134.76 39.9422 135.735 39.5367C136.719 39.1311 137.627 38.5034 138.447 37.6344C139.297 36.746 139.924 35.7803 140.32 34.7567C140.725 33.7235 140.909 32.613 140.889 31.4253C140.87 30.3051 140.658 29.2622 140.252 28.2966C139.847 27.3309 139.258 26.4426 138.476 25.6314C137.723 24.8396 136.883 24.2409 135.966 23.8546C135.049 23.4587 134.045 23.2656 132.954 23.2656C131.815 23.2752 130.763 23.4684 129.807 23.8546ZM146.228 31.6667V44.8091H140.976V42.5012C140.079 43.2351 139.113 43.8338 138.1 44.2876C136.343 45.0698 134.441 45.4271 132.375 45.3595C130.56 45.2919 128.89 44.9153 127.356 44.22C125.811 43.5248 124.411 42.5205 123.156 41.1879C121.902 39.865 120.955 38.4069 120.318 36.8232C119.681 35.2396 119.353 33.5304 119.353 31.7053C119.353 29.8127 119.701 28.0455 120.376 26.4039C121.052 24.7623 122.075 23.2656 123.417 21.9233C124.769 20.5521 126.255 19.5479 127.896 18.8912C129.537 18.2442 131.304 17.9546 133.205 18.0222C135.03 18.0897 136.729 18.4663 138.293 19.1713C139.857 19.8762 141.276 20.8901 142.559 22.242C143.834 23.5649 144.789 25.0327 145.407 26.6164C146.015 28.1807 146.295 29.8706 146.228 31.6667ZM95.3841 27.2827C95.1138 27.7462 94.8821 28.2483 94.6987 28.7794H110.366C110.182 28.2676 109.96 27.7848 109.7 27.3406C109.236 26.5391 108.638 25.8342 107.904 25.2162C107.18 24.5982 106.379 24.1347 105.501 23.816C104.622 23.4973 103.657 23.3235 102.614 23.3042C101.591 23.2849 100.626 23.4298 99.7377 23.7388C98.8303 24.0478 97.9904 24.5209 97.2182 25.1389C96.4652 25.757 95.8571 26.4715 95.3841 27.2827ZM74.8999 28.7118H80.4216V44.8187H74.8999V28.7118H80.4216C80.4216 25.8149 82.7673 23.4684 85.6633 23.4684H87.0726V17.9449H85.6633C79.7265 17.9352 74.8999 22.7635 74.8999 28.7118ZM156.325 10.1618V44.8091H150.996V10.1618H156.325ZM176.635 34.7278C177.002 35.7031 177.562 36.6108 178.325 37.4509C179.097 38.3007 179.937 38.938 180.844 39.3629C181.761 39.7877 182.755 40.0195 183.856 40.0581H183.875C185.053 40.1161 186.124 39.9519 187.109 39.556C188.094 39.1601 188.991 38.5324 189.802 37.6537L189.812 37.644C190.661 36.7556 191.289 35.7996 191.685 34.7857C192.09 33.7621 192.274 32.671 192.254 31.4929C192.216 30.3631 191.994 29.3202 191.579 28.3545C191.173 27.3889 190.575 26.5005 189.793 25.6894C189.03 24.8879 188.2 24.2892 187.283 23.9029C186.375 23.5167 185.391 23.3235 184.31 23.3235H184.29C183.151 23.3042 182.109 23.4973 181.153 23.9029C180.197 24.2988 179.319 24.9072 178.508 25.7183C177.697 26.5295 177.099 27.4082 176.703 28.3642C176.297 29.3298 176.095 30.3824 176.075 31.5315C176.085 32.6613 176.259 33.7332 176.635 34.7278ZM196.646 26.5971C197.284 28.1807 197.612 29.8899 197.612 31.715C197.612 33.5883 197.264 35.3361 196.579 36.9777C195.884 38.6097 194.861 40.1064 193.5 41.468C192.148 42.8199 190.652 43.8241 189.011 44.4808C187.389 45.1374 185.632 45.4271 183.75 45.3595C181.945 45.3112 180.255 44.9443 178.701 44.249C177.147 43.5537 175.747 42.5495 174.492 41.2266C173.237 39.894 172.291 38.4455 171.674 36.8618C171.046 35.2782 170.737 33.569 170.737 31.7536C170.737 29.8609 171.085 28.0938 171.76 26.4522C172.446 24.8106 173.459 23.3139 174.801 21.9716C176.153 20.6004 177.649 19.5768 179.271 18.9202C180.902 18.2636 182.659 17.9642 184.541 18.0318C186.356 18.0994 188.055 18.4857 189.619 19.2002C191.163 19.9052 192.563 20.9191 193.808 22.2613C195.063 23.5649 196.009 25.0134 196.646 26.5971ZM162.416 18.6015H166.644V44.7994H161.354V18.6112H162.416V18.6015ZM166.644 10.1618V14.5651H161.345V10.1618H166.644ZM107.074 38.88C107.817 38.3972 108.474 37.7599 109.043 36.9584H115.057C114.613 38.0496 114.053 39.0539 113.378 39.9616C112.548 41.0817 111.553 42.057 110.385 42.8778C109.217 43.6986 108.001 44.3166 106.707 44.7318C105.423 45.1471 104.072 45.3692 102.653 45.3885C100.867 45.4078 99.1681 45.0988 97.585 44.4518C96.0019 43.8048 94.5249 42.8199 93.1638 41.5066L93.1542 41.4969C91.7931 40.1547 90.7505 38.6966 90.0458 37.1033C89.3411 35.5099 88.9743 33.7911 88.9454 31.9371C88.8971 29.9961 89.2253 28.1711 89.9107 26.4812C90.5961 24.7913 91.6483 23.2559 93.0576 21.8654C94.496 20.4556 96.0501 19.4127 97.7298 18.756C99.4288 18.0897 101.244 17.8194 103.194 17.9256C104.931 18.0415 106.563 18.4567 108.078 19.1713C109.584 19.8858 110.984 20.8998 112.258 22.2227C113.484 23.5167 114.411 24.9072 115.028 26.375C115.656 27.862 115.974 29.4264 115.974 31.068V33.8587H94.5442C94.6987 34.4864 94.9111 35.0851 95.2007 35.6451C95.6447 36.5142 96.2722 37.306 97.0637 37.982C97.8746 38.6773 98.753 39.2084 99.6894 39.556C100.635 39.9036 101.649 40.0678 102.73 40.0581H102.74C104.448 40.0485 105.887 39.6526 107.074 38.88Z" fill="url(#paint6_linear_2656_981)"/>
    <path fill-rule="evenodd" clip-rule="evenodd" d="M27.9417 30.9901C35.8859 30.9405 42.4299 24.8608 42.9981 17.224C43.0184 16.9364 42.9271 16.6785 42.7242 16.4603C42.5212 16.2421 42.2676 16.133 41.9632 16.133H28.8852C28.3171 16.133 27.8504 16.5893 27.8504 17.1447V28.5007C27.8504 29.8396 26.5923 30.9901 25.1414 30.9901H15.1579C14.7318 30.9901 14.3665 31.2281 14.2042 31.6149C14.0419 32.0017 14.123 32.4183 14.4274 32.7158L27.546 45.5397C27.7489 45.738 27.9924 45.8372 28.2765 45.8372H40.5428C40.9689 45.8372 41.3342 45.5992 41.4965 45.2124C41.6589 44.8256 41.5777 44.409 41.2733 44.1115L27.8504 30.9901H27.9417ZM59.3228 31C59.3228 14.9826 46.0419 2 29.6563 2C13.2708 2 0 14.9826 0 31C0 47.0174 13.2809 60 29.6665 60C46.052 60 59.3228 47.0075 59.3228 31Z" fill="url(#paint7_linear_2656_981)"/>
    <defs>
        <linearGradient id="paint0_linear_2656_981" x1="-712" y1="-75" x2="389" y2="60" gradientUnits="userSpaceOnUse">
            <stop stop-color="#017B6D"/>
            <stop offset="1" stop-color="#062759"/>
        </linearGradient>
        <linearGradient id="paint1_linear_2656_981" x1="-712" y1="-75" x2="389" y2="60" gradientUnits="userSpaceOnUse">
            <stop stop-color="#017B6D"/>
            <stop offset="1" stop-color="#062759"/>
        </linearGradient>
        <linearGradient id="paint2_linear_2656_981" x1="-712" y1="-75" x2="389" y2="60" gradientUnits="userSpaceOnUse">
            <stop stop-color="#017B6D"/>
            <stop offset="1" stop-color="#062759"/>
        </linearGradient>
        <linearGradient id="paint3_linear_2656_981" x1="-712" y1="-75" x2="389" y2="60" gradientUnits="userSpaceOnUse">
            <stop stop-color="#017B6D"/>
            <stop offset="1" stop-color="#062759"/>
        </linearGradient>
        <linearGradient id="paint4_linear_2656_981" x1="-712" y1="-75" x2="389" y2="60" gradientUnits="userSpaceOnUse">
            <stop stop-color="#017B6D"/>
            <stop offset="1" stop-color="#062759"/>
        </linearGradient>
        <linearGradient id="paint5_linear_2656_981" x1="-712" y1="-75" x2="389" y2="60" gradientUnits="userSpaceOnUse">
            <stop stop-color="#017B6D"/>
            <stop offset="1" stop-color="#062759"/>
        </linearGradient>
        <linearGradient id="paint6_linear_2656_981" x1="-712" y1="-75" x2="389" y2="60" gradientUnits="userSpaceOnUse">
            <stop stop-color="#017B6D"/>
            <stop offset="1" stop-color="#062759"/>
        </linearGradient>
        <linearGradient id="paint7_linear_2656_981" x1="-712" y1="-75" x2="389" y2="60" gradientUnits="userSpaceOnUse">
            <stop stop-color="#017B6D"/>
            <stop offset="1" stop-color="#062759"/>
        </linearGradient>
    </defs>
</svg>
