<svg width="215" height="60" viewBox="0 0 215 60" fill="none" xmlns="http://www.w3.org/2000/svg">
    <path d="M207.997 40.2156C208.22 40.2156 208.413 40.3048 208.413 40.5528C208.413 40.8007 208.22 40.9098 207.997 40.9098H207.347V40.2156H207.997ZM209.224 40.5329C209.224 39.8982 208.748 39.5015 208.037 39.5015H206.516V42.824H207.337V41.5842H207.601L208.362 42.824L209.356 42.8041L208.474 41.5247C208.94 41.376 209.224 41.0189 209.224 40.5329ZM207.804 44.3414C209.671 44.3414 211 43.0025 211 41.1776C211 39.3527 209.671 38.0237 207.804 38.0237C205.927 38.0237 204.598 39.3527 204.598 41.1776C204.598 43.0025 205.927 44.3414 207.804 44.3414ZM207.804 38.6287C209.336 38.6287 210.351 39.68 210.351 41.1776C210.351 42.6752 209.336 43.7265 207.804 43.7265C206.252 43.7265 205.278 42.6752 205.278 41.1776C205.278 39.68 206.262 38.6287 207.804 38.6287Z" fill="url(#paint0_linear_2651_947)"/>
    <path fill-rule="evenodd" clip-rule="evenodd" d="M132.948 23.3353C131.994 23.7221 131.112 24.3073 130.3 25.1007C129.488 25.8942 128.89 26.757 128.484 27.6893C128.078 28.6414 127.875 29.6729 127.855 30.7936C127.835 31.9143 128.007 32.9656 128.382 33.9475C128.748 34.8996 129.306 35.7923 130.077 36.6154C130.838 37.4386 131.69 38.0535 132.603 38.48C133.537 38.9164 134.561 39.1544 135.647 39.2139C136.824 39.2635 137.899 39.0949 138.883 38.7081C139.868 38.3114 140.781 37.6866 141.602 36.8436C142.455 35.9708 143.084 35.0286 143.479 34.0169C143.885 33.0053 144.078 31.9144 144.058 30.744C144.038 29.6431 143.824 28.6216 143.419 27.6794C143.013 26.7372 142.414 25.8644 141.643 25.071C140.882 24.2875 140.04 23.7122 139.127 23.3254C138.204 22.9386 137.199 22.7502 136.103 22.7502C134.957 22.7601 133.902 22.9485 132.948 23.3353ZM149.415 30.9821V43.8654H144.149V41.6042C143.246 42.3282 142.282 42.9034 141.268 43.3497C139.512 44.1233 137.595 44.4704 135.525 44.401C133.709 44.3316 132.025 43.9646 130.483 43.2803C128.94 42.596 127.53 41.6141 126.272 40.3148C125.014 39.0156 124.06 37.5874 123.421 36.0402C122.782 34.4831 122.457 32.807 122.457 31.0217C122.457 29.1671 122.802 27.4315 123.492 25.8247C124.172 24.218 125.197 22.7502 126.546 21.4311C127.895 20.0922 129.397 19.1004 131.041 18.4656C132.684 17.8309 134.46 17.5433 136.367 17.6127C138.204 17.6821 139.898 18.0491 141.46 18.7334C143.033 19.4178 144.453 20.4195 145.742 21.7386C147.02 23.0378 147.974 24.466 148.593 26.0231C149.202 27.5703 149.476 29.2266 149.415 30.9821ZM98.4116 26.6876C98.1377 27.1438 97.9145 27.6397 97.7217 28.1555H113.438C113.255 27.6596 113.032 27.1835 112.768 26.7372C112.301 25.9537 111.703 25.2594 110.972 24.6544C110.242 24.0494 109.44 23.5932 108.568 23.2858C107.685 22.9684 106.721 22.8097 105.676 22.7899C104.651 22.77 103.687 22.9188 102.784 23.2163C101.882 23.5139 101.029 23.98 100.258 24.5949C99.4972 25.1999 98.8783 25.8942 98.4116 26.6876ZM77.8561 28.086H83.3958V43.8754H77.8561V28.086H83.3958C83.3958 25.2495 85.7496 22.9386 88.6615 22.9386H90.0717V17.5234H88.6615C82.6957 17.5234 77.8561 22.2543 77.8561 28.086ZM159.551 9.89656V43.8654H154.204V9.89656H159.551ZM179.913 33.9872C180.278 34.9393 180.837 35.8319 181.608 36.6551C182.379 37.4882 183.221 38.1131 184.144 38.5296C185.057 38.9462 186.062 39.1743 187.168 39.2139H187.188C188.365 39.2734 189.45 39.1048 190.434 38.718C191.419 38.3312 192.322 37.7064 193.143 36.8535L193.154 36.8436C194.006 35.9708 194.635 35.0385 195.031 34.0368C195.436 33.0351 195.619 31.9639 195.609 30.8035C195.568 29.6927 195.345 28.6712 194.939 27.729C194.533 26.7868 193.935 25.914 193.154 25.1107C192.393 24.3271 191.551 23.742 190.637 23.3552C189.734 22.9684 188.74 22.7799 187.655 22.7799H187.634C186.498 22.7601 185.453 22.9486 184.489 23.3453C183.535 23.7321 182.653 24.3371 181.841 25.1305C181.029 25.9239 180.431 26.7868 180.025 27.7191C179.619 28.6613 179.416 29.7026 179.396 30.8234C179.365 31.9639 179.538 33.0152 179.913 33.9872ZM199.992 26.0132C200.631 27.5703 200.956 29.2464 200.956 31.0317C200.956 32.8665 200.611 34.5823 199.911 36.189C199.221 37.7858 198.186 39.2635 196.826 40.5925C195.477 41.9116 193.975 42.9034 192.322 43.5481C190.688 44.1828 188.933 44.4804 187.046 44.4109C185.23 44.3613 183.535 44.0043 181.983 43.32C180.431 42.6455 179.01 41.6537 177.752 40.3545C176.494 39.0553 175.551 37.6271 174.921 36.0799C174.292 34.5228 173.988 32.8565 173.988 31.0713C173.988 29.2167 174.333 27.481 175.023 25.8743C175.703 24.2676 176.727 22.7998 178.077 21.4807C179.436 20.1319 180.928 19.1301 182.561 18.4855C184.195 17.8408 185.96 17.5433 187.847 17.6127C189.674 17.6821 191.378 18.059 192.94 18.7533C194.483 19.4376 195.893 20.4393 197.141 21.7485C198.399 23.0378 199.353 24.466 199.992 26.0132ZM169.899 18.178V43.8654H164.593V18.178H169.899ZM169.899 9.89656V14.2109H164.583V9.89656H169.899ZM110.14 38.0535C110.891 37.5775 111.55 36.9526 112.119 36.1691H118.155C117.709 37.2403 117.151 38.2221 116.471 39.1148C115.639 40.2156 114.645 41.1678 113.468 41.9711C112.301 42.7745 111.074 43.3795 109.775 43.796C108.486 44.2027 107.137 44.4208 105.706 44.4407C103.911 44.4605 102.216 44.1531 100.623 43.5183C99.0305 42.8836 97.5594 41.9215 96.1897 40.6322L96.1795 40.6223C94.8099 39.3032 93.775 37.875 93.0648 36.3179C92.3546 34.7608 91.9893 33.0747 91.969 31.2498C91.9284 29.3456 92.2429 27.5604 92.943 25.8942C93.6329 24.2379 94.6881 22.7304 96.0984 21.3716C97.5391 19.9831 99.1015 18.9715 100.786 18.3268C102.49 17.6722 104.306 17.4044 106.264 17.5135C108.01 17.6226 109.643 18.0293 111.165 18.7334C112.677 19.4376 114.077 20.4294 115.355 21.7187C116.583 22.9882 117.516 24.347 118.135 25.795C118.764 27.2529 119.079 28.7902 119.079 30.387V33.1243H97.5797C97.7318 33.7392 97.9449 34.3244 98.2391 34.8699C98.6856 35.7228 99.3146 36.4964 100.106 37.1609C100.918 37.8453 101.8 38.361 102.744 38.6982C103.687 39.0354 104.702 39.204 105.798 39.1842H105.808C107.502 39.204 108.943 38.8172 110.14 38.0535Z" fill="url(#paint1_linear_2651_947)"/>
    <path fill-rule="evenodd" clip-rule="evenodd" d="M30.9417 29.9901C38.8859 29.9405 45.4299 23.8608 45.9981 16.224C46.0184 15.9364 45.9271 15.6785 45.7242 15.4603C45.5212 15.2421 45.2676 15.133 44.9632 15.133H31.8852C31.3171 15.133 30.8504 15.5893 30.8504 16.1447V27.5007C30.8504 28.8396 29.5923 29.9901 28.1414 29.9901H18.1579C17.7318 29.9901 17.3665 30.2281 17.2042 30.6149C17.0419 31.0017 17.123 31.4183 17.4274 31.7158L30.546 44.5397C30.7489 44.738 30.9924 44.8372 31.2765 44.8372H43.5428C43.9689 44.8372 44.3342 44.5992 44.4965 44.2124C44.6589 43.8256 44.5777 43.409 44.2733 43.1115L30.8504 29.9901H30.9417ZM62.3228 30C62.3228 13.9826 49.0419 1 32.6563 1C16.2708 1 3 13.9826 3 30C3 46.0174 16.2809 59 32.6665 59C49.052 59 62.3228 46.0075 62.3228 30Z" fill="url(#paint2_linear_2651_947)"/>
    <defs>
        <linearGradient id="paint0_linear_2651_947" x1="-284.318" y1="-60.6072" x2="209.677" y2="64.3239" gradientUnits="userSpaceOnUse">
            <stop stop-color="#062759"/>
            <stop offset="1" stop-color="#020914"/>
        </linearGradient>
        <linearGradient id="paint1_linear_2651_947" x1="-284.318" y1="-60.6072" x2="209.677" y2="64.3239" gradientUnits="userSpaceOnUse">
            <stop stop-color="#062759"/>
            <stop offset="1" stop-color="#020914"/>
        </linearGradient>
        <linearGradient id="paint2_linear_2651_947" x1="-284.318" y1="-60.6072" x2="209.677" y2="64.3239" gradientUnits="userSpaceOnUse">
            <stop stop-color="#062759"/>
            <stop offset="1" stop-color="#020914"/>
        </linearGradient>
    </defs>
</svg>